<svg width="374" height="386" viewBox="0 0 374 386" fill="none" xmlns="http://www.w3.org/2000/svg">
<circle cx="185.395" cy="88.8062" r="50" fill="#D35D47"/>
<mask id="mask0" mask-type="alpha" maskUnits="userSpaceOnUse" x="118" y="42" width="68" height="98">
<rect x="184.383" y="139.794" width="66.3666" height="96.7802" transform="rotate(-179.561 184.383 139.794)" fill="#C4C4C4"/>
</mask>
<g mask="url(#mask0)">
<path fill-rule="evenodd" clip-rule="evenodd" d="M161.469 125.175L165.731 120.913C168.983 122.89 172.495 124.344 176.203 125.247V131.278C176.203 132.228 176.973 132.997 177.922 132.997L192.395 132.807C193.345 132.807 193.968 132.228 193.968 131.278V125.247C197.677 124.344 201.189 122.89 204.441 120.913L208.702 125.175C209.373 125.846 210.462 125.846 211.133 125.175L221.264 115.044C221.935 114.372 221.935 113.284 221.264 112.613L217.003 108.352C218.979 105.1 220.433 101.588 221.336 97.879H227.367C228.317 97.879 229.086 97.1099 229.086 96.1604V81.8327C229.086 80.8837 228.317 80.1142 227.367 80.1142H221.337C220.434 76.4069 218.98 72.8952 217.003 69.6413L221.264 65.3801C221.935 64.7088 221.935 63.6207 221.264 62.9494L211.133 52.8184C210.462 52.1471 209.373 52.1471 208.702 52.8184L204.44 57.0801C201.188 55.1033 197.677 53.6501 193.968 52.7462L193.969 46.7156C193.969 46.2598 193.787 45.8221 193.465 45.4998C193.142 45.1774 192.705 44.9965 192.249 44.9965L177.922 44.997C176.973 44.9965 176.204 45.7661 176.204 46.7156L176.203 52.7462C172.495 53.6492 168.983 55.1024 165.73 57.0797L161.469 52.8184C160.798 52.1471 159.71 52.1471 159.038 52.8184L148.907 62.9494C148.237 63.6202 148.236 64.7088 148.907 65.3801L153.169 69.6413C151.192 72.8933 149.738 76.4055 148.835 80.1142H142.804C141.856 80.1142 141.086 80.8837 141.086 81.8327V96.1604C141.086 97.1094 141.856 97.879 142.804 97.879L148.834 97.879C149.738 101.586 151.191 105.098 153.169 108.351L148.907 112.613C148.236 113.284 148.236 114.372 148.907 115.044L159.038 125.175C159.71 125.846 160.798 125.846 161.469 125.175ZM152.553 113.828L156.573 109.809C157.15 109.232 157.242 108.328 156.791 107.646C154.41 104.042 152.762 100.062 151.894 95.8162C151.731 95.0158 151.027 94.4414 150.211 94.4414H144.523V83.5518L150.211 83.5513C151.028 83.5513 151.731 82.9769 151.895 82.1769C152.763 77.9294 154.411 73.9492 156.791 70.3468C157.241 69.6651 157.15 68.7612 156.573 68.1839L152.553 64.1647L160.254 56.4644L164.272 60.4831C164.85 61.0609 165.754 61.152 166.435 60.7015C170.039 58.3211 174.019 56.6738 178.266 55.8059C179.066 55.6426 179.64 54.9386 179.64 54.122L179.641 48.4341L189.895 48.3066L190.531 54.122C190.531 54.9386 191.105 55.6426 191.905 55.8064C196.152 56.6747 200.132 58.3216 203.735 60.7024C204.416 61.153 205.321 61.0613 205.898 60.484L209.917 56.4644L217.618 64.1647L213.599 68.1839C213.021 68.7612 212.93 69.6656 213.38 70.3468C215.762 73.9515 217.409 77.9318 218.277 82.1764C218.44 82.9769 219.144 83.5518 219.961 83.5513H225.649L225.648 94.4414L219.96 94.4419C219.143 94.4414 218.44 95.0158 218.276 95.8163C217.408 100.064 215.761 104.044 213.38 107.646C212.93 108.328 213.021 109.232 213.599 109.809L217.618 113.828L209.917 121.529L205.899 117.51C205.321 116.932 204.417 116.841 203.736 117.291C200.133 119.672 196.153 121.319 191.906 122.187C191.106 122.351 190.531 123.055 190.531 123.871V129.559L179.641 129.559V123.871C179.641 123.054 179.067 122.35 178.266 122.187C174.02 121.318 170.04 119.671 166.437 117.29C165.755 116.84 164.851 116.931 164.273 117.509L160.254 121.529L152.553 113.828Z" fill="white"/>
</g>
<mask id="mask1" mask-type="alpha" maskUnits="userSpaceOnUse" x="184" y="43" width="90" height="91">
<rect x="273.395" y="133.806" width="89" height="90" transform="rotate(-180 273.395 133.806)" fill="#C4C4C4"/>
</mask>
<g mask="url(#mask1)">
<path d="M156.135 118.29C139.71 101.865 139.397 75.8041 155.895 59.3063C172.393 42.8085 199.395 42.3065 215.507 59.1746C231.932 75.5996 232.245 101.661 215.748 118.159C199.25 134.657 173.395 136.307 156.135 118.29Z" stroke="black" stroke-width="3.5"/>
<path d="M161.704 113.103C148.341 99.74 148.087 78.5374 161.509 65.1154C174.931 51.6933 196.899 51.2849 210.007 65.0082C223.37 78.3711 223.625 99.5737 210.203 112.996C196.78 126.418 175.746 127.76 161.704 113.103Z" stroke="black" stroke-width="3.5"/>
</g>
<mask id="mask2" mask-type="alpha" maskUnits="userSpaceOnUse" x="157" y="58" width="27" height="62">
<rect x="157.395" y="58.8062" width="26" height="61" fill="#C4C4C4"/>
</mask>
<g mask="url(#mask2)">
<path d="M207.729 91.4728H199.395V87.9718C203.194 87.1975 206.062 83.8307 206.062 79.8062C206.062 78.8858 205.316 78.1395 204.395 78.1395C203.475 78.1395 202.729 78.8858 202.729 79.8062C202.729 82.0592 201.23 83.968 199.178 84.591C198.422 81.3268 195.744 78.792 192.404 78.249C192.616 77.689 192.729 77.0897 192.729 76.4728C192.729 74.248 191.862 72.1557 190.287 70.5807C190.123 70.4172 189.953 70.262 189.778 70.1137L192.241 67.6513C192.891 67.0005 192.891 65.9452 192.241 65.2942C191.59 64.6435 190.535 64.6435 189.883 65.2942L186.71 68.4675C185.963 68.2512 185.189 68.1395 184.395 68.1395C183.601 68.1395 182.826 68.2512 182.08 68.4675L178.907 65.2943C178.256 64.6437 177.201 64.6437 176.55 65.2943C175.899 65.9452 175.899 67.0005 176.55 67.6515L179.012 70.1138C178.837 70.2623 178.667 70.4175 178.503 70.5812C176.929 72.1557 176.062 74.248 176.062 76.4728C176.062 77.0982 176.178 77.6965 176.389 78.2487C173.048 78.791 170.369 81.3263 169.612 84.5912C167.56 83.968 166.062 82.0592 166.062 79.8062C166.062 78.8858 165.316 78.1395 164.395 78.1395C163.475 78.1395 162.729 78.8858 162.729 79.8062C162.729 83.8305 165.596 87.1975 169.395 87.9718V91.4728H161.062C160.142 91.4728 159.395 92.2192 159.395 93.1395C159.395 94.0598 160.142 94.8062 161.062 94.8062H169.395V98.3072C165.596 99.0815 162.729 102.448 162.729 106.473C162.729 107.393 163.475 108.139 164.395 108.139C165.316 108.139 166.062 107.393 166.062 106.473C166.062 104.255 167.514 102.371 169.517 101.718C170.459 109.09 176.772 114.806 184.395 114.806C192.019 114.806 198.332 109.09 199.274 101.718C201.277 102.371 202.729 104.255 202.729 106.473C202.729 107.393 203.475 108.139 204.395 108.139C205.316 108.139 206.062 107.393 206.062 106.473C206.062 102.448 203.194 99.0815 199.395 98.3072V94.8062H207.729C208.649 94.8062 209.395 94.0598 209.395 93.1395C209.395 92.2192 208.649 91.4728 207.729 91.4728ZM180.86 72.9382C181.291 72.5075 181.788 72.1635 182.341 71.9137C182.985 71.6212 183.676 71.4728 184.395 71.4728C185.114 71.4728 185.805 71.6212 186.453 71.9152C187.003 72.1633 187.5 72.5075 187.93 72.9378C188.875 73.8828 189.395 75.1382 189.395 76.4728C189.395 76.9175 189.222 77.3358 188.907 77.6508C188.591 77.9658 188.173 78.1395 187.729 78.1395H181.062C180.143 78.1395 179.395 77.3918 179.395 76.4728C179.395 75.1382 179.916 73.8828 180.86 72.9382ZM196.062 99.8062C196.062 105.673 191.708 110.54 186.062 111.352V96.4728C186.062 95.5525 185.316 94.8062 184.395 94.8062C183.475 94.8062 182.729 95.5525 182.729 96.4728V111.352C177.082 110.54 172.729 105.673 172.729 99.8062V86.4728C172.729 83.7158 174.972 81.4728 177.729 81.4728H181.062H182.729V83.1395C182.729 84.0598 183.475 84.8062 184.395 84.8062C185.316 84.8062 186.062 84.0598 186.062 83.1395V81.4728H187.729H191.062C193.819 81.4728 196.062 83.7158 196.062 86.4728V99.8062Z" fill="white"/>
</g>
<mask id="mask3" mask-type="alpha" maskUnits="userSpaceOnUse" x="185" y="58" width="27" height="62">
<rect x="185.395" y="58.8062" width="26" height="61" fill="#C4C4C4"/>
</mask>
<g mask="url(#mask3)">
<path d="M206.729 91.4728H198.395V87.9718C202.194 87.1975 205.062 83.8307 205.062 79.8062C205.062 78.8858 204.316 78.1395 203.395 78.1395C202.475 78.1395 201.729 78.8858 201.729 79.8062C201.729 82.0592 200.23 83.968 198.178 84.591C197.422 81.3268 194.744 78.792 191.404 78.249C191.616 77.689 191.729 77.0897 191.729 76.4728C191.729 74.248 190.862 72.1557 189.287 70.5807C189.123 70.4172 188.953 70.262 188.778 70.1137L191.241 67.6513C191.891 67.0005 191.891 65.9452 191.241 65.2942C190.59 64.6435 189.535 64.6435 188.883 65.2942L185.71 68.4675C184.963 68.2512 184.189 68.1395 183.395 68.1395C182.601 68.1395 181.826 68.2512 181.08 68.4675L177.907 65.2943C177.256 64.6437 176.201 64.6437 175.55 65.2943C174.899 65.9452 174.899 67.0005 175.55 67.6515L178.012 70.1138C177.837 70.2623 177.667 70.4175 177.503 70.5812C175.929 72.1557 175.062 74.248 175.062 76.4728C175.062 77.0982 175.178 77.6965 175.389 78.2487C172.048 78.791 169.369 81.3263 168.612 84.5912C166.56 83.968 165.062 82.0592 165.062 79.8062C165.062 78.8858 164.316 78.1395 163.395 78.1395C162.475 78.1395 161.729 78.8858 161.729 79.8062C161.729 83.8305 164.596 87.1975 168.395 87.9718V91.4728H160.062C159.142 91.4728 158.395 92.2192 158.395 93.1395C158.395 94.0598 159.142 94.8062 160.062 94.8062H168.395V98.3072C164.596 99.0815 161.729 102.448 161.729 106.473C161.729 107.393 162.475 108.139 163.395 108.139C164.316 108.139 165.062 107.393 165.062 106.473C165.062 104.255 166.514 102.371 168.517 101.718C169.459 109.09 175.772 114.806 183.395 114.806C191.019 114.806 197.332 109.09 198.274 101.718C200.277 102.371 201.729 104.255 201.729 106.473C201.729 107.393 202.475 108.139 203.395 108.139C204.316 108.139 205.062 107.393 205.062 106.473C205.062 102.448 202.194 99.0815 198.395 98.3072V94.8062H206.729C207.649 94.8062 208.395 94.0598 208.395 93.1395C208.395 92.2192 207.649 91.4728 206.729 91.4728ZM179.86 72.9382C180.291 72.5075 180.788 72.1635 181.341 71.9137C181.985 71.6212 182.676 71.4728 183.395 71.4728C184.114 71.4728 184.805 71.6212 185.453 71.9152C186.003 72.1633 186.5 72.5075 186.93 72.9378C187.875 73.8828 188.395 75.1382 188.395 76.4728C188.395 76.9175 188.222 77.3358 187.907 77.6508C187.591 77.9658 187.173 78.1395 186.729 78.1395H180.062C179.143 78.1395 178.395 77.3918 178.395 76.4728C178.395 75.1382 178.916 73.8828 179.86 72.9382ZM195.062 99.8062C195.062 105.673 190.708 110.54 185.062 111.352V96.4728C185.062 95.5525 184.316 94.8062 183.395 94.8062C182.475 94.8062 181.729 95.5525 181.729 96.4728V111.352C176.082 110.54 171.729 105.673 171.729 99.8062V86.4728C171.729 83.7158 173.972 81.4728 176.729 81.4728H180.062H181.729V83.1395C181.729 84.0598 182.475 84.8062 183.395 84.8062C184.316 84.8062 185.062 84.0598 185.062 83.1395V81.4728H186.729H190.062C192.819 81.4728 195.062 83.7158 195.062 86.4728V99.8062Z" fill="black"/>
</g>
<path d="M184.145 44.8062V132.931" stroke="white" stroke-width="3.5"/>
<path d="M86.0199 74.832L83.7759 55.384L94.2479 65.856L122.672 88.296L118.932 104.752L120.428 111.484L128.656 128.688L117.436 133.924L108.46 118.964L106.216 113.728L89.0119 106.248V98.768L86.0199 74.832Z" fill="black"/>
<path d="M287.98 74.832L290.224 55.384L279.752 65.856L251.328 88.296L255.068 104.752L253.572 111.484L245.344 128.688L256.564 133.924L265.54 118.964L267.784 113.728L284.988 106.248V98.768L287.98 74.832Z" fill="black"/>
<path d="M228.888 166.836L248.336 126.444L255.068 128.688L239.36 170.576L228.888 166.836Z" fill="black"/>
<path d="M144.364 166.836L124.916 126.444L118.184 128.688L133.892 170.576L144.364 166.836Z" fill="black"/>
<path d="M276.012 153.372L258.06 131.68L252.076 146.64L258.06 162.348L272.272 178.804L296.208 186.284H316.404L338.096 195.26L356.796 216.204L351.56 195.26L334.356 174.316L314.908 165.34L276.012 153.372Z" fill="#FFC000"/>
<path d="M176.136 269.96L188.802 276.101L256.515 136.459C256.933 136.406 257.316 136.302 257.698 136.163C258.238 135.971 258.76 135.711 259.247 135.38C259.264 135.415 259.282 135.432 259.299 135.467L267.32 120.143C267.563 119.064 267.511 117.934 267.146 116.855L288.162 107.358L287.432 105.288C284.196 95.9123 289.45 54.131 293.121 44.912C288.145 53.5048 258.551 83.4579 249.173 86.7281L247.103 87.4586L252.601 109.636C251.052 110.158 249.713 111.271 248.947 112.837L243.38 124.3C242.388 126.352 242.614 128.666 243.78 130.44L176.136 269.96ZM262.744 112.559L278.681 74.6737L258.794 110.628L257.716 110.089L254.08 95.4426C254.323 95.6166 254.549 95.7731 254.81 95.9297C257.298 97.4256 260.012 98.4518 262.744 98.9215C260.256 97.6865 258.099 96.0166 256.324 94.0685C255.193 92.8161 254.219 91.4941 253.331 90.0852C262.205 85.2147 276.923 70.2382 286.109 59.3667C283.256 73.2996 280.612 94.138 282.282 104.105C280.646 104.314 278.976 104.366 277.306 104.262C274.696 104.07 272.034 103.409 269.529 102.226C271.582 104.07 274.07 105.566 276.784 106.592C277.045 106.697 277.323 106.784 277.602 106.871L263.857 113.081L262.744 112.559ZM255.002 131.571L248.408 128.388C247.677 128.04 247.381 127.135 247.729 126.405H247.712L253.297 114.959C253.471 114.594 253.784 114.333 254.132 114.211C254.48 114.089 254.88 114.107 255.245 114.263L261.839 117.447C262.187 117.638 262.448 117.934 262.587 118.299C262.726 118.647 262.692 119.064 262.535 119.412L256.968 130.858C256.62 131.606 255.732 131.919 255.002 131.571ZM186.575 269.682L182.556 267.734L247.729 133.362L251.766 135.311L186.575 269.682Z" fill="white"/>
<path d="M129.248 130.457C130.397 128.683 130.623 126.37 129.649 124.317L124.081 112.854C123.316 111.289 121.976 110.176 120.428 109.654L125.925 87.476L123.855 86.7454C114.477 83.4579 84.8833 53.5048 79.9075 44.912C83.5785 54.131 88.8327 95.9123 85.5966 105.288L84.8659 107.358L105.883 116.855C105.535 117.934 105.465 119.064 105.709 120.143L113.729 135.467C113.747 135.432 113.764 135.415 113.782 135.38C114.269 135.711 114.791 135.972 115.33 136.163C115.695 136.319 116.095 136.406 116.513 136.459L184.226 276.101L196.892 269.96L129.248 130.457ZM109.223 113.081L95.4788 106.871C95.7571 106.784 96.0355 106.697 96.2965 106.592C99.028 105.566 101.498 104.07 103.551 102.226C101.046 103.409 98.3842 104.07 95.7745 104.262C94.0869 104.366 92.4341 104.314 90.7987 104.105C92.4863 94.1207 89.8244 73.2996 86.9711 59.3667C96.1573 70.2382 110.876 85.2147 119.749 90.0852C118.879 91.4941 117.905 92.8335 116.757 94.0685C114.982 96.0166 112.825 97.6865 110.337 98.9215C113.068 98.4519 115.782 97.4256 118.27 95.9297C118.531 95.7731 118.757 95.6166 119.001 95.4426L115.365 110.089L114.286 110.628L94.3827 74.6738L110.319 112.559L109.223 113.081ZM116.078 130.875L110.511 119.429C110.337 119.082 110.319 118.664 110.458 118.316C110.598 117.951 110.859 117.638 111.207 117.464L117.8 114.281C118.166 114.107 118.566 114.089 118.914 114.229C119.262 114.333 119.592 114.594 119.749 114.977L125.334 126.422H125.316C125.664 127.153 125.369 128.04 124.638 128.405L118.044 131.588C117.331 131.919 116.443 131.606 116.078 130.875ZM121.315 135.311L125.351 133.362L190.524 267.734L186.506 269.682L121.315 135.311Z" fill="white"/>
<path d="M131.648 172.072H100.98V245.376L107.712 280.532L127.908 307.46L185.504 350.096L206.448 339.624L253.572 298.484L269.28 273.052L273.768 221.44V172.072H243.848L214.676 163.844L185.504 154.12L156.332 163.844L131.648 172.072Z" fill="black"/>
<path d="M153.34 184.788L118.184 187.78H115.94V239.392L123.42 274.548L142.868 302.972L187 331.396L203.456 322.42L235.62 296.988L252.076 270.808L255.816 226.676V187.78L219.164 184.788L183.26 173.568L153.34 184.788Z" fill="#D35D47"/>
<path d="M251.157 129.605C248.826 139.816 250.061 150.618 254.776 160.341C259.752 170.604 268.173 179.04 278.542 184.084C288.928 189.163 297.123 189.146 305.056 189.146C312.346 189.129 319.219 189.111 327.57 193.199C338.704 198.626 348.778 208.871 355.894 221.987L361.078 231.519L360.417 220.717C358.921 196.226 345.838 176.205 324.525 165.785C317.253 162.237 311.894 161.454 306.709 160.724C301.02 159.906 295.14 159.071 285.866 154.531C276.054 149.748 264.78 140.964 264.188 125.865C262.692 126.039 261.857 126.579 262.692 126.039L251.157 129.605ZM255.124 134.754C256.899 153.609 267.146 168.76 285.971 173.143C292.095 174.674 299.141 174.813 305.404 174.343C276.245 173.335 264.154 159.715 261.579 136.772C265.093 145.834 272.626 153.418 283.761 158.845C293.713 163.716 300.255 164.655 306.031 165.455C311.076 166.186 315.809 166.864 322.42 170.099C339.174 178.275 350.152 192.294 354.119 210.158C347.247 200.731 338.809 193.338 329.675 188.868C320.315 184.31 312.555 184.31 305.039 184.328C297.314 184.345 290.042 184.345 280.63 179.753C263.127 171.212 252.984 152.687 255.124 134.754Z" fill="white"/>
<path d="M254.445 190.068C225.06 189.39 198.685 180.188 189.237 176.5L186.541 207.289L183.844 176.5C174.397 180.188 148.021 189.39 118.636 190.068C118.619 194.66 118.566 199.287 118.497 203.792C118.079 237.485 117.679 269.317 133.79 287.459C150.231 305.949 167.455 317.551 183.844 327.049L186.523 283.111L189.203 327.049C205.592 317.551 222.833 305.949 239.257 287.459C255.385 269.317 254.985 237.503 254.55 203.792C254.515 199.304 254.463 194.66 254.445 190.068Z" fill="#39C2D7"/>
<path d="M276.228 192.538C276.141 186.067 276.054 179.37 276.054 172.795V169.873L273.131 169.856C228.835 169.543 188.106 151.94 187.706 151.766L186.523 151.244L185.34 151.766C184.94 151.94 144.263 169.543 99.9154 169.856L96.9926 169.873V172.795C96.9926 179.353 96.9056 186.05 96.8186 192.538C96.2793 235.224 95.7747 275.527 117.14 299.583C142.645 328.266 171.3 344.478 185.062 352.27L186.506 353.088L187.95 352.27C201.729 344.478 230.384 328.266 255.872 299.583C277.289 275.527 276.767 235.224 276.228 192.538ZM186.523 346.322C165.35 334.267 142.906 319.691 121.559 295.669C101.707 273.335 102.195 234.128 102.717 192.625C102.786 187.076 102.856 181.371 102.873 175.718C143.498 174.778 179.494 160.602 186.523 157.68C193.552 160.602 229.549 174.778 270.173 175.718C270.19 181.371 270.26 187.076 270.33 192.625C270.852 234.128 271.339 273.335 251.488 295.669C230.157 319.673 207.697 334.25 186.523 346.322Z" fill="white"/>
<path d="M259.369 203.74C259.299 198.487 259.23 193.042 259.23 187.72V185.337L256.846 185.319C220.884 185.058 187.811 170.778 187.48 170.621L186.523 170.204L185.566 170.621C185.236 170.76 152.214 185.058 116.2 185.319L113.817 185.337V187.72C113.817 193.042 113.747 198.487 113.677 203.74C113.242 238.39 112.825 271.126 130.188 290.642C150.892 313.933 174.153 327.101 185.34 333.432L186.523 334.093L187.706 333.432C198.893 327.101 222.154 313.933 242.858 290.642C260.204 271.126 259.804 238.39 259.369 203.74ZM239.274 287.459C222.833 305.949 205.609 317.551 189.22 327.049L186.54 283.11L183.861 327.049C167.472 317.551 150.231 305.949 133.807 287.459C117.679 269.317 118.079 237.502 118.514 203.792C118.566 199.287 118.636 194.66 118.653 190.068C148.039 189.39 174.414 180.188 183.861 176.5L186.558 207.288L189.255 176.5C198.702 180.188 225.077 189.39 254.463 190.068C254.48 194.66 254.532 199.287 254.584 203.792C255.002 237.502 255.402 269.334 239.274 287.459Z" fill="white"/>
<path d="M186.523 169.056C189.081 169.056 191.151 166.986 191.151 164.429C191.151 162.776 190.281 161.333 188.976 160.515C189.603 161.072 190.055 161.837 190.194 162.724C189.864 162.028 189.342 161.437 188.681 161.037C189.359 161.628 189.794 162.515 189.794 163.489C189.794 165.298 188.333 166.76 186.523 166.76C184.714 166.76 183.252 165.298 183.252 163.489C183.252 162.515 183.687 161.628 184.366 161.037C183.722 161.437 183.2 162.028 182.852 162.724C182.991 161.854 183.426 161.089 184.07 160.515C182.765 161.333 181.895 162.776 181.895 164.429C181.913 166.986 183.983 169.056 186.523 169.056Z" fill="#21231F"/>
<path d="M135.251 182.258C137.808 182.258 139.879 180.188 139.879 177.631C139.879 175.979 139.009 174.535 137.704 173.717C138.33 174.274 138.783 175.039 138.922 175.926C138.591 175.231 138.069 174.639 137.408 174.239C138.087 174.831 138.522 175.718 138.522 176.692C138.522 178.501 137.06 179.962 135.251 179.962C133.442 179.962 131.98 178.501 131.98 176.692C131.98 175.718 132.415 174.831 133.094 174.239C132.45 174.639 131.928 175.231 131.58 175.926C131.719 175.057 132.154 174.291 132.798 173.717C131.493 174.535 130.623 175.979 130.623 177.631C130.64 180.188 132.711 182.258 135.251 182.258Z" fill="#21231F"/>
<path d="M237.795 182.258C240.353 182.258 242.423 180.188 242.423 177.631C242.423 175.979 241.553 174.535 240.249 173.717C240.875 174.274 241.327 175.039 241.466 175.926C241.136 175.231 240.614 174.639 239.953 174.239C240.631 174.831 241.066 175.718 241.066 176.692C241.066 178.501 239.605 179.962 237.795 179.962C235.986 179.962 234.525 178.501 234.525 176.692C234.525 175.718 234.959 174.831 235.638 174.239C234.994 174.639 234.472 175.231 234.124 175.926C234.264 175.057 234.699 174.291 235.342 173.717C234.037 174.535 233.167 175.979 233.167 177.631C233.185 180.188 235.255 182.258 237.795 182.258Z" fill="#21231F"/>
<path d="M113.034 209.637C113.034 207.984 112.164 206.54 110.859 205.723C111.485 206.28 111.938 207.045 112.077 207.932C111.746 207.236 111.224 206.645 110.563 206.245C111.242 206.836 111.677 207.723 111.677 208.697C111.677 210.506 110.215 211.967 108.406 211.967C106.596 211.967 105.135 210.506 105.135 208.697C105.135 207.723 105.57 206.836 106.248 206.245C105.605 206.645 105.083 207.236 104.735 207.932C104.874 207.062 105.309 206.297 105.953 205.723C104.648 206.54 103.778 207.984 103.778 209.637C103.778 212.194 105.848 214.264 108.406 214.264C110.963 214.264 113.034 212.194 113.034 209.637Z" fill="#21231F"/>
<path d="M264.641 214.264C267.198 214.264 269.268 212.194 269.268 209.637C269.268 207.984 268.399 206.54 267.094 205.723C267.72 206.28 268.172 207.045 268.312 207.932C267.981 207.236 267.459 206.645 266.798 206.245C267.476 206.836 267.911 207.723 267.911 208.697C267.911 210.506 266.45 211.967 264.641 211.967C262.831 211.967 261.37 210.506 261.37 208.697C261.37 207.723 261.805 206.836 262.483 206.245C261.839 206.645 261.318 207.236 260.97 207.932C261.109 207.062 261.544 206.297 262.187 205.723C260.883 206.54 260.013 207.984 260.013 209.637C260.03 212.194 262.083 214.264 264.641 214.264Z" fill="#21231F"/>
<path d="M115.191 262.985C115.817 263.542 116.27 264.307 116.409 265.194C116.078 264.498 115.556 263.907 114.895 263.507C115.574 264.098 116.009 264.986 116.009 265.96C116.009 267.769 114.547 269.23 112.738 269.23C110.929 269.23 109.467 267.769 109.467 265.96C109.467 264.986 109.902 264.098 110.581 263.507C109.937 263.907 109.415 264.498 109.067 265.194C109.206 264.325 109.641 263.559 110.285 262.985C108.98 263.803 108.11 265.246 108.11 266.899C108.11 269.456 110.18 271.526 112.738 271.526C115.296 271.526 117.366 269.456 117.366 266.899C117.366 265.246 116.496 263.803 115.191 262.985Z" fill="#21231F"/>
<path d="M262.762 262.985C263.388 263.542 263.84 264.307 263.98 265.194C263.649 264.498 263.127 263.907 262.466 263.507C263.144 264.098 263.579 264.986 263.579 265.96C263.579 267.769 262.118 269.23 260.309 269.23C258.499 269.23 257.038 267.769 257.038 265.96C257.038 264.986 257.473 264.098 258.151 263.507C257.507 263.907 256.986 264.498 256.638 265.194C256.777 264.325 257.212 263.559 257.855 262.985C256.551 263.803 255.681 265.246 255.681 266.899C255.681 269.456 257.751 271.526 260.309 271.526C262.866 271.526 264.936 269.456 264.936 266.899C264.936 265.246 264.067 263.803 262.762 262.985Z" fill="#21231F"/>
<path d="M152.249 311.672C152.875 312.229 153.328 312.994 153.467 313.881C153.136 313.185 152.614 312.594 151.953 312.194C152.632 312.785 153.067 313.672 153.067 314.646C153.067 316.455 151.605 317.917 149.796 317.917C147.986 317.917 146.525 316.455 146.525 314.646C146.525 313.672 146.96 312.785 147.639 312.194C146.995 312.594 146.473 313.185 146.125 313.881C146.264 313.011 146.699 312.246 147.343 311.672C146.038 312.49 145.168 313.933 145.168 315.586C145.168 318.143 147.238 320.213 149.796 320.213C152.353 320.213 154.424 318.143 154.424 315.586C154.424 313.951 153.554 312.49 152.249 311.672Z" fill="#21231F"/>
<path d="M225.704 311.672C226.33 312.229 226.782 312.994 226.921 313.881C226.591 313.185 226.069 312.594 225.408 312.194C226.086 312.785 226.521 313.672 226.521 314.646C226.521 316.455 225.06 317.917 223.25 317.917C221.441 317.917 219.98 316.455 219.98 314.646C219.98 313.672 220.415 312.785 221.093 312.194C220.449 312.594 219.927 313.185 219.579 313.881C219.719 313.011 220.154 312.246 220.797 311.672C219.492 312.49 218.623 313.933 218.623 315.586C218.623 318.143 220.693 320.213 223.25 320.213C225.808 320.213 227.878 318.143 227.878 315.586C227.878 313.951 227.008 312.49 225.704 311.672Z" fill="#21231F"/>
<path d="M97.24 153.372L115.192 130.184L121.176 145.144L115.192 162.348L97.988 178.804L77.044 186.284H56.848L35.156 195.26L16.456 216.204L21.692 195.26L38.896 174.316L60.588 163.844L97.24 153.372Z" fill="#FFC000"/>
<path d="M110.389 126.039C111.224 126.596 110.389 126.039 108.893 125.865C108.301 140.964 97.0272 149.73 87.2147 154.531C77.9415 159.071 72.061 159.906 66.3718 160.724C61.1872 161.472 55.8286 162.237 48.5562 165.785C27.2261 176.187 14.1254 196.208 12.6291 220.699L11.968 231.501L17.1526 221.969C24.2685 208.854 34.342 198.609 45.4767 193.182C53.8278 189.094 60.7 189.111 67.9898 189.129C75.9234 189.146 84.1179 189.163 94.5045 184.067C104.874 179.005 113.294 170.586 118.27 160.324C122.985 150.6 124.238 139.798 121.889 129.588L110.389 126.039ZM92.4167 179.77C83.0044 184.363 75.732 184.363 68.0072 184.345C60.5087 184.328 52.7317 184.31 43.3716 188.885C34.2376 193.338 25.7995 200.731 18.9273 210.158C22.8766 192.294 33.8722 178.275 50.6266 170.099C57.2378 166.864 61.9875 166.186 67.0155 165.455C72.7917 164.637 79.3508 163.715 89.2851 158.845C100.42 153.401 107.971 145.817 111.468 136.772C108.893 159.732 96.8011 173.352 67.6419 174.343C73.9052 174.796 80.9514 174.657 87.0755 173.143C105.918 168.76 116.165 153.609 117.922 134.754C120.062 152.687 109.937 171.212 92.4167 179.77Z" fill="white"/>
<path d="M223.121 280.27C221.061 281.035 219.061 281.712 217.119 282.3C215.236 282.948 213.206 283.448 211.029 283.801C208.91 284.213 206.468 284.419 203.703 284.419C201.055 284.419 198.142 284.007 194.965 283.183C191.787 282.359 188.551 281.3 185.256 280.005C181.96 278.77 178.724 277.416 175.547 275.945C172.369 274.474 169.427 273.062 166.72 271.709C164.013 270.414 161.719 269.355 159.836 268.531C158.07 267.707 156.187 267.06 154.187 266.589C152.186 266.119 150.215 265.677 148.273 265.265C142.801 264.03 138.358 261.852 134.945 258.734C131.591 255.556 129.12 251.732 127.531 247.259C126.001 242.787 125.236 237.962 125.236 232.784C125.236 228.371 125.795 224.193 126.913 220.251C128.09 216.249 129.855 212.719 132.209 209.659C134.563 206.54 137.534 204.098 141.124 202.333C144.713 200.568 148.92 199.685 153.745 199.685C158.57 199.685 162.748 200.597 166.279 202.421C169.868 204.187 172.84 206.629 175.194 209.747C177.547 212.807 179.283 216.338 180.401 220.339C181.578 224.281 182.166 228.43 182.166 232.784C182.166 237.021 181.578 241.169 180.401 245.229C179.224 249.231 177.341 252.85 174.752 256.086C172.222 259.322 168.868 261.823 164.69 263.588C164.867 263.647 165.073 263.735 165.308 263.853C165.543 263.971 165.779 264.088 166.014 264.206C167.309 264.853 169.103 265.765 171.398 266.942C173.752 268.119 176.429 269.384 179.43 270.738C182.431 272.091 185.55 273.356 188.786 274.533C192.023 275.769 195.171 276.769 198.23 277.534C201.349 278.358 204.174 278.77 206.704 278.77C207.939 278.77 209.469 278.623 211.293 278.328C213.118 278.034 214.971 277.681 216.854 277.269C218.737 276.857 220.355 276.445 221.709 276.034L223.121 280.27ZM153.745 259.793C157.452 259.793 160.571 259.028 163.101 257.498C165.632 255.909 167.662 253.82 169.192 251.231C170.78 248.583 171.898 245.671 172.546 242.493C173.252 239.257 173.605 236.021 173.605 232.784C173.605 229.548 173.252 226.341 172.546 223.163C171.898 219.986 170.78 217.103 169.192 214.514C167.662 211.866 165.632 209.777 163.101 208.247C160.571 206.658 157.452 205.864 153.745 205.864C150.038 205.864 146.92 206.658 144.389 208.247C141.859 209.836 139.829 211.954 138.299 214.602C136.769 217.191 135.651 220.074 134.945 223.252C134.298 226.429 133.974 229.636 133.974 232.872C133.974 236.05 134.298 239.227 134.945 242.405C135.651 245.582 136.769 248.495 138.299 251.143C139.829 253.732 141.859 255.821 144.389 257.41C146.92 258.999 150.038 259.793 153.745 259.793Z" fill="#21231F"/>
<path d="M214.464 200.568L236.706 264.824H227.615L220.201 242.758H199.017L191.515 264.824H184.101L206.432 200.568H214.464ZM209.697 211.336L201.048 236.756H218.171L209.697 211.336Z" fill="white"/>
<path d="M118.062 131.571L124.655 128.37C125.386 128.022 125.699 127.135 125.334 126.405L119.767 114.942C119.593 114.576 119.279 114.316 118.932 114.194C118.584 114.072 118.166 114.089 117.801 114.263L111.207 117.464C110.859 117.638 110.58 117.934 110.459 118.299C110.337 118.664 110.354 119.064 110.528 119.429L116.096 130.892C116.444 131.623 117.331 131.919 118.062 131.571Z" fill="black"/>
<path d="M255.002 131.571L248.408 128.37C247.677 128.022 247.364 127.135 247.73 126.405L253.297 114.942C253.471 114.576 253.784 114.316 254.132 114.194C254.48 114.072 254.897 114.089 255.263 114.263L261.857 117.464C262.205 117.638 262.483 117.934 262.605 118.299C262.727 118.664 262.709 119.064 262.535 119.429L256.968 130.892C256.62 131.623 255.733 131.919 255.002 131.571Z" fill="black"/>
</svg>
